<?xml version="1.0" encoding="UTF-8"?> <svg xmlns="http://www.w3.org/2000/svg" id="Icono_Linkedin" data-name="Icono&gt;Linkedin" width="44.037" height="44.038" viewBox="0 0 44.037 44.038"><rect id="Rectángulo_78" data-name="Rectángulo 78" width="8.987" height="28.653" transform="translate(1.773 15.189)" fill="#191919"></rect><path id="Trazado_320" data-name="Trazado 320" d="M1927.166,266.049q-.508-.057-1.042-.078a10.485,10.485,0,0,0-8.857,4.055,6.346,6.346,0,0,0-.391.561v-3.834h-8.6v28.653h8.987V281.944c0-1.945-.152-4.023.822-5.787a4.384,4.384,0,0,1,4-2.24,4.765,4.765,0,0,1,5.08,4.917v16.7h8.986v-18.69C1936.153,270.452,1932.9,266.669,1927.166,266.049Z" transform="translate(-1892.116 -251.499)" fill="#191919"></path><circle id="Elipse_8" data-name="Elipse 8" cx="5.21" cy="5.21" r="5.21" transform="matrix(0.23, -0.973, 0.973, 0.23, 0, 10.141)" fill="#191919"></circle></svg> 