<?xml version="1.0" encoding="UTF-8"?> <svg xmlns="http://www.w3.org/2000/svg" xmlns:xlink="http://www.w3.org/1999/xlink" width="77.311" height="50.313" viewBox="0 0 77.311 50.313"><defs><clipPath id="clip-path"><path id="Trazado_678" data-name="Trazado 678" d="M-764.806,98.073l-37.884,22.016-29.436-16.995,37.884-22.016Z" transform="translate(832.125 -81.078)" fill="#fff" stroke="#fff" stroke-linejoin="round" stroke-width="1"></path></clipPath><clipPath id="clip-path-2"><path id="Trazado_681" data-name="Trazado 681" d="M-617.691,101.381l-1.526.887-8.03-4.636,1.526-.887Z" transform="translate(627.247 -96.745)" fill="#191919" stroke="#fff" stroke-width="1"></path></clipPath><clipPath id="clip-path-3"><path id="Trazado_688" data-name="Trazado 688" d="M-848.78,171.388l3.171-1.843,29.436,16.995-3.171,1.843a6.947,6.947,0,0,1-6.307,0l-23.108-13.342C-850.508,174.031-850.517,172.4-848.78,171.388Z" transform="translate(850.077 -169.545)" fill="#191919" stroke="#fff" stroke-linejoin="round" stroke-width="1"></path></clipPath></defs><g id="Icono_Mvl" data-name="Icono&gt;Mvl" transform="translate(0.5 0.663)"><g id="Grupo_458" data-name="Grupo 458" transform="translate(4.518 2.603)"><path id="Trazado_676" data-name="Trazado 676" d="M-764.806,98.073l-37.884,22.016-29.436-16.995,37.884-22.016Z" transform="translate(832.125 -81.078)" fill="#fff" stroke="#fff" stroke-width="1"></path><g id="Grupo_457" data-name="Grupo 457" transform="translate(0)" clip-path="url(#clip-path)"><path id="Trazado_677" data-name="Trazado 677" d="M-764.806,98.073l-37.884,22.016-29.436-16.995,37.884-22.016Z" transform="translate(832.125 -81.078)" fill="#fff" stroke="#fff" stroke-linejoin="round" stroke-width="1"></path></g><path id="Trazado_679" data-name="Trazado 679" d="M-764.806,98.073l-37.884,22.016-29.436-16.995,37.884-22.016Z" transform="translate(832.125 -81.078)" fill="#fff" stroke="#fff" stroke-linejoin="round" stroke-width="1"></path></g><g id="Grupo_460" data-name="Grupo 460" transform="translate(55.504 6.502)" style="isolation: isolate"><g id="Grupo_459" data-name="Grupo 459" transform="translate(0 0)" clip-path="url(#clip-path-2)"><path id="Trazado_680" data-name="Trazado 680" d="M-617.691,101.381l-1.526.887-8.03-4.636,1.526-.887Z" transform="translate(627.247 -96.745)" fill="#191919" stroke="#fff" stroke-miterlimit="10" stroke-width="0.25"></path></g></g><path id="Trazado_682" data-name="Trazado 682" d="M-778.442,149.37l-37.883,22.015h0l-3.171,1.843a6.947,6.947,0,0,1-6.307,0l-23.108-13.342-.031-.02.01-3.634a2.212,2.212,0,0,0-1.3,1.82v-.006l-.05,4.775v.006c0,.044.007.089.011.133s0,.077.01.115.022.089.033.134.016.075.029.112.037.09.056.134.028.073.047.109.052.088.079.131.04.071.065.106.07.088.105.131.05.066.08.1.092.091.139.136c.03.028.056.057.087.085.056.049.12.1.183.144.029.022.054.045.084.066q.144.1.308.2h0L-825.853,178a6.947,6.947,0,0,0,6.307,0l3.171-1.843h0l37.884-22.015Z" transform="translate(850.279 -129.772)" fill="#191919" stroke="#fff" stroke-linejoin="round" stroke-width="1"></path><path id="Trazado_683" data-name="Trazado 683" d="M-557.29,129.1c0-.045-.007-.089-.011-.134s0-.077-.01-.115-.021-.089-.033-.133-.016-.076-.029-.114-.037-.089-.056-.134-.028-.073-.046-.109-.053-.089-.08-.133-.039-.07-.063-.1-.07-.089-.107-.133-.049-.065-.078-.1-.09-.089-.136-.133c-.03-.029-.057-.059-.09-.088-.052-.046-.112-.089-.17-.134-.033-.025-.062-.051-.1-.076q-.144-.1-.308-.2l-.01,3.671-3.149,1.83-.05,4.775,3.18-1.848a2.211,2.211,0,0,0,1.293-1.82v.005c.015-5.315.035.54.05-4.775Z" transform="translate(633.6 -113.167)" fill="#191919" stroke="#fff" stroke-linejoin="round" stroke-width="1"></path><g id="Grupo_461" data-name="Grupo 461" transform="translate(42.401)"><path id="Trazado_684" data-name="Trazado 684" d="M-647.3,84.715c1.748,1.009,1.748,2.649.02,3.653l-3.18,1.848-29.436-16.995,3.18-1.848a6.962,6.962,0,0,1,6.307,0Zm-11.464-2.072,1.525-.887-8.03-4.636-1.526.887Z" transform="translate(679.894 -70.618)" fill="#191919" stroke="#fff" stroke-width="1"></path><path id="Trazado_685" data-name="Trazado 685" d="M-647.3,84.715c1.748,1.009,1.748,2.649.02,3.653l-3.18,1.848-29.436-16.995,3.18-1.848a6.962,6.962,0,0,1,6.307,0Zm-11.464-2.072,1.525-.887-8.03-4.636-1.526.887Z" transform="translate(679.894 -70.618)" fill="#191919" stroke="#fff" stroke-linejoin="round" stroke-width="1"></path></g><g id="Grupo_463" data-name="Grupo 463" transform="translate(0.05 24.619)"><path id="Trazado_686" data-name="Trazado 686" d="M-848.78,171.388l3.171-1.843,29.436,16.995-3.171,1.843a6.947,6.947,0,0,1-6.307,0l-23.108-13.342C-850.508,174.031-850.517,172.4-848.78,171.388Z" transform="translate(850.077 -169.545)" fill="#191919" stroke="#fff" stroke-width="1"></path><g id="Grupo_462" data-name="Grupo 462" transform="translate(0)" clip-path="url(#clip-path-3)"><path id="Trazado_687" data-name="Trazado 687" d="M-848.78,171.388l3.171-1.843,29.436,16.995-3.171,1.843a6.947,6.947,0,0,1-6.307,0l-23.108-13.342C-850.508,174.031-850.517,172.4-848.78,171.388Z" transform="translate(850.077 -169.545)" fill="#191919" stroke="#fff" stroke-linejoin="round" stroke-width="1"></path></g><path id="Trazado_689" data-name="Trazado 689" d="M-848.78,171.388l3.171-1.843,29.436,16.995-3.171,1.843a6.947,6.947,0,0,1-6.307,0l-23.108-13.342C-850.508,174.031-850.517,172.4-848.78,171.388Z" transform="translate(850.077 -169.545)" fill="#191919" stroke="#fff" stroke-linejoin="round" stroke-width="1"></path></g></g></svg> 