<?xml version="1.0" encoding="utf-8"?>
<!-- Generator: Adobe Illustrator 25.3.1, SVG Export Plug-In . SVG Version: 6.00 Build 0)  -->
<svg version="1.1" id="Capa_1" focusable="false" xmlns="http://www.w3.org/2000/svg" xmlns:xlink="http://www.w3.org/1999/xlink"
	 x="0px" y="0px" viewBox="0 0 58 23" enable-background="new 0 0 58 23" xml:space="preserve">
<g id="Page-1">
	<g id="ibm-8-bar-logo--h15-copy">
		<path id="Combined-Shape" fill-rule="evenodd" clip-rule="evenodd" fill="#FFFFFF" d="M50,18.7v1.1h-5.5v-1.1H50z M36.7,18.7v1.1
			h-5.5v-1.1H36.7z M41,18.7l-0.4,1.1l-0.4-1.1H41z M28.7,18.7c-0.8,0.7-1.8,1.1-3,1.1l0,0h-8.8v-1.1H28.7z M15.7,18.7v1.1H8v-1.1
			H15.7z M36.7,16.5v1.1h-5.5v-1.1H36.7z M41.9,16.5l-0.4,1.1h-1.7l-0.4-1.1H41.9z M29.8,16.5c-0.1,0.4-0.3,0.8-0.5,1.1l0,0H16.8
			v-1.1H29.8z M15.7,16.5v1.1H8v-1.1H15.7z M50,16.5v1.1h-5.5v-1.1H50z M47.8,14.3v1.1h-3.3v-1.1H47.8z M36.7,14.3v1.1h-3.3v-1.1
			H36.7z M42.8,14.3l-0.4,1.1h-3.5l-0.4-1.1H42.8z M29.6,14.3c0.1,0.4,0.2,0.7,0.2,1.1l0,0h-4.1v-1.1H29.6z M22.4,14.3v1.1h-3.3
			v-1.1H22.4z M13.5,14.3v1.1h-3.3v-1.1H13.5z M47.8,12.1v1.1h-3.3v-1.1H47.8z M36.7,12.1v1.1h-3.3v-1.1H36.7z M43.6,12.1l-0.4,1.1
			H38l-0.4-1.1H43.6z M28.3,12.1c0.4,0.3,0.7,0.7,1,1.1l0,0H19.1v-1.1H28.3z M13.5,12.1v1.1h-3.3v-1.1H13.5z M40.3,9.8l0.3,0.9
			l0.3-0.9h6.9v1.1h-3.3v-1l-0.4,1h-7l-0.4-1v1h-3.3V9.8H40.3z M13.5,9.8v1.1h-3.3V9.8H13.5z M29.2,9.8c-0.3,0.4-0.6,0.8-1,1.1l0,0
			h-9.2V9.8H29.2z M47.8,7.6v1.1h-6.5l0.4-1.1H47.8z M39.5,7.6l0.4,1.1h-6.5V7.6H39.5z M29.8,7.6c0,0.4-0.1,0.8-0.2,1.1l0,0h-3.9
			V7.6H29.8z M22.4,7.6v1.1h-3.3V7.6H22.4z M13.5,7.6v1.1h-3.3V7.6H13.5z M38.8,5.4l0.4,1.1h-7.9l0-1.1H38.8z M50,5.4v1.1h-7.9
			l0.4-1.1H50z M29.3,5.4c0.2,0.3,0.4,0.7,0.5,1.1l0,0H16.8V5.4H29.3z M15.7,5.4v1.1H8V5.4H15.7z M38,3.2l0.4,1.1h-7.2l0-1.1H38z
			 M50,3.2v1.1h-7.2l0.4-1.1H50z M25.7,3.2c1.2,0,2.2,0.4,3,1.1l0,0H16.8V3.2H25.7z M15.7,3.2v1.1H8V3.2H15.7z"/>
	</g>
</g>
</svg>
