<?xml version="1.0" encoding="UTF-8"?> <svg xmlns="http://www.w3.org/2000/svg" id="Capa_2" viewBox="0 0 273.69 185.1"><defs><style>.cls-1{fill:#fff;}</style></defs><g id="Capa_1-2"><g><path class="cls-1" d="M108.99,96.24c-.56,0-1.09-.3-1.37-.78l-27.36-46.44v-.04s-.06-.07-.06-.07l-.07-.18-.06-.14-.03-.12-.02-.14-.02-.14v-.14l.02-.14,.02-.15,.03-.12,.06-.13,.06-.15-.06,.07s.09-.13,.09-.13l.03-.07L107.62,.79c.29-.48,.81-.79,1.37-.79h36.84c.44,0,.78,.21,.99,.38l.11,.08,.12,.15,.11,.12,19.44,31.1c.31,.49,.32,1.11,.04,1.62-.28,.51-.81,.82-1.39,.82h-37.02l-8.25,13.86,8.25,13.85h37.02c.58,0,1.11,.31,1.39,.82,.28,.51,.27,1.13-.04,1.62l-19.42,31.08-.15,.18-.08,.1c-.06,.07-.12,.1-.17,.14l-.17,.12c-.07,.04-.15,.07-.23,.09-.08,.03-.13,.05-.19,.07-.1,.03-.24,.04-.37,.04h-36.84Zm.91-3.19h33.13l-25.8-43.34h-32.86l25.54,43.34Zm35.96-1.47l16.51-26.42h-32.24l15.73,26.42Zm-61.5-45.06h32.86L143.03,3.19h-33.13l-25.54,43.34Zm45.77-15.45h32.24l-16.51-26.42-15.73,26.42Z"></path><g><path class="cls-1" d="M0,105.42H5.71v28.28H23.31v-28.28h5.71v64.48h-5.71v-31.04H5.71v31.04H0V105.42Z"></path><path class="cls-1" d="M37.12,184.18v-4.79c1.11,.55,2.3,.83,3.68,.83,3.32,0,4.7-1.2,5.71-5.25l1.2-4.7-12.34-46.43h5.71l9.4,36.85,8.47-36.85h5.25l-12.44,51.86c-1.57,6.72-4.42,9.4-10.23,9.4-1.66,0-3.22-.28-4.42-.92Z"></path><path class="cls-1" d="M97.27,136.19v21.28c0,9.12-4.05,13.36-10.87,13.36-4.51,0-8.11-2.3-10.13-6.26v19.62h-5.53v-60.34h4.7l.18,6.82c1.93-4.88,5.8-7.74,10.78-7.74,6.82,0,10.87,4.24,10.87,13.27Zm-5.53,.55c0-5.53-2.03-8.84-6.91-8.84s-8.57,4.24-8.57,11.7v14.55c0,7.46,3.68,11.7,8.57,11.7s6.91-3.32,6.91-8.75v-20.36Z"></path><path class="cls-1" d="M131.73,137.75v9.76h-21.09v9.03c0,6.26,2.58,9.3,7.74,9.3s7.92-3.04,7.92-9.3v-1.29h5.44v.74c0,9.49-4.7,14.83-13.36,14.83s-13.26-5.34-13.26-14.83v-18.24c0-9.49,4.51-14.83,13.26-14.83s13.36,5.34,13.36,14.83Zm-5.44,5.07v-5.53c0-6.36-2.76-9.4-7.92-9.4s-7.74,3.04-7.74,9.4v5.53h15.66Z"></path><path class="cls-1" d="M157.7,123.47v5.53c-.92-.37-1.84-.55-2.95-.55-6.26,0-9.4,4.7-9.4,14.46v26.99h-5.53v-46.06h4.7l.18,7.55c1.66-5.71,4.97-8.47,9.95-8.47,1.2,0,2.12,.18,3.04,.55Z"></path><path class="cls-1" d="M163.14,155.62v-36.02c0-9.4,5.07-15.11,14-15.11s14.19,5.71,14.19,15.11v6.63h-5.44v-6.91c0-6.26-3.41-9.67-8.66-9.67s-8.38,3.41-8.38,9.67v36.66c0,6.26,3.22,9.58,8.38,9.58s8.66-3.32,8.66-9.58v-8.75h5.44v8.38c0,9.49-5.07,15.2-14.19,15.2s-14-5.71-14-15.2Z"></path><path class="cls-1" d="M224.86,137.75v9.76h-21.1v9.03c0,6.26,2.58,9.3,7.74,9.3s7.92-3.04,7.92-9.3v-1.29h5.44v.74c0,9.49-4.7,14.83-13.36,14.83s-13.26-5.34-13.26-14.83v-18.24c0-9.49,4.51-14.83,13.26-14.83s13.36,5.34,13.36,14.83Zm-5.44,5.07v-5.53c0-6.36-2.76-9.4-7.92-9.4s-7.74,3.04-7.74,9.4v5.53h15.66Z"></path><path class="cls-1" d="M240.79,146.32l-10.87-22.48h6.08l8.38,17.87,8.57-17.87h5.53l-10.87,22.48,11.42,23.58h-6.08l-8.94-19.07-9.03,19.07h-5.53l11.33-23.58Z"></path></g><g><path class="cls-1" d="M261.53,105.48h-2.5v-.99h6.04v.99h-2.5v7.54h-1.05v-7.54Z"></path><path class="cls-1" d="M266.47,104.5h1.25l2.36,6.06,2.36-6.06h1.24v8.52h-1.05v-6.42l-2.2,5.64h-.72l-2.19-5.64v6.42h-1.06v-8.52Z"></path></g></g></g></svg> 