<?xml version="1.0" encoding="UTF-8"?> <svg xmlns="http://www.w3.org/2000/svg" xmlns:xlink="http://www.w3.org/1999/xlink" width="119.87" height="102.434" viewBox="0 0 119.87 102.434"><defs><linearGradient id="linear-gradient" x1="0.121" y1="-0.182" x2="0.879" y2="1.128" gradientUnits="objectBoundingBox"><stop offset="0" stop-color="#70debf"></stop><stop offset="0.149" stop-color="#7bccc4"></stop><stop offset="0.446" stop-color="#9a9ed3"></stop><stop offset="0.86" stop-color="#cc54eb"></stop><stop offset="1" stop-color="#de3af4"></stop></linearGradient></defs><g id="Grupo_259" data-name="Grupo 259" transform="translate(-20.9 -23.237)"><g id="Grupo_258" data-name="Grupo 258" transform="translate(40.102 110.878)"><path id="Trazado_308" data-name="Trazado 308" d="M79.9,283.463v6.382h3.487v-6.382h1.986v14.792H83.388V291.62H79.9v6.635H77.915V283.463Z" transform="translate(-77.915 -283.463)" fill="#fff"></path><path id="Trazado_309" data-name="Trazado 309" d="M109.529,298.255h-1.987V292.8l-3.085-9.34h2.092l2.008,7.143,2.008-7.143h2.05l-3.085,9.34Z" transform="translate(-95.518 -283.463)" fill="#fff"></path><path id="Trazado_310" data-name="Trazado 310" d="M140.358,286.591v2.641c0,2.176-1.353,3.128-3.592,3.128h-1.712v5.9h-1.987V283.463h3.7C139.006,283.463,140.358,284.414,140.358,286.591Zm-1.986.38c0-1.31-.591-1.754-1.69-1.754h-1.627v5.367h1.627c1.1,0,1.69-.443,1.69-1.732Z" transform="translate(-114.493 -283.463)" fill="#fff"></path><path id="Trazado_311" data-name="Trazado 311" d="M160.112,298.255V283.463h6.234v1.754H162.1v4.648h3.593v1.776H162.1v4.86h4.311v1.754Z" transform="translate(-132.429 -283.463)" fill="#fff"></path><path id="Trazado_312" data-name="Trazado 312" d="M190.29,298.255l-2.049-6.065h-1.733v6.065h-1.986V283.463h3.7c2.24,0,3.592.951,3.592,3.128v2.472a2.753,2.753,0,0,1-1.732,2.832l2.24,6.361Zm-3.782-7.8h1.627c1.1,0,1.691-.444,1.691-1.754v-1.732c0-1.31-.592-1.754-1.691-1.754h-1.627Z" transform="translate(-148.617 -283.463)" fill="#fff"></path><path id="Trazado_313" data-name="Trazado 313" d="M212.819,298.255V283.463h1.986l3.719,10.186V283.463h1.839v14.792h-1.9l-3.8-10.524v10.524Z" transform="translate(-167.385 -283.463)" fill="#fff"></path><path id="Trazado_314" data-name="Trazado 314" d="M242.5,298.255V283.463h1.987v14.792Z" transform="translate(-187.068 -283.463)" fill="#fff"></path><path id="Trazado_315" data-name="Trazado 315" d="M255.674,283.463h6.149v1.754H257.66v4.754h3.508v1.775H257.66v6.509h-1.986Z" transform="translate(-195.807 -283.463)" fill="#fff"></path><path id="Trazado_316" data-name="Trazado 316" d="M283.084,285.217h-2.578v13.038h-1.986V285.217h-2.578v-1.754h7.143Z" transform="translate(-209.248 -283.463)" fill="#fff"></path><path id="Trazado_317" data-name="Trazado 317" d="M303.916,298.255h-1.987V292.8l-3.085-9.34h2.092l2.008,7.143,2.008-7.143H307l-3.085,9.34Z" transform="translate(-224.438 -283.463)" fill="#fff"></path></g><path id="Trazado_318" data-name="Trazado 318" d="M102.789,31.019c-1.177-2.619-3.179-7.781-9.254-7.781a9.593,9.593,0,0,0-9.626,9.572V57.89l.008,25.259a3.072,3.072,0,0,1-6.144,0l.038-50.437,0-.253a.255.255,0,0,0,0-.053,9.47,9.47,0,0,0-9.384-9.165,9.668,9.668,0,0,0-9.551,9.688V51.6a3.248,3.248,0,0,1-3.2,3.2l-12.635-.076H39.774a6.22,6.22,0,0,0-6.34,6.339h0V64.2l.008,18.953a3.072,3.072,0,0,1-6.144,0V26.607h-.008c0-.057.008-.113.008-.17a3.2,3.2,0,1,0-6.4,0c0,.057.006.113.009.17H20.9V83.144h0v.04h0a9.47,9.47,0,0,0,9.286,9.428,9.643,9.643,0,0,0,9.646-9.684V64.2a3.3,3.3,0,0,1,3.2-3.131L58.87,61.2h0c6.659-.864,6.4-6.4,6.4-6.4V32.822a3.147,3.147,0,0,1,2.96-3.184,3.069,3.069,0,0,1,3.145,2.607V82.514h0a3.034,3.034,0,0,0,.013,1.093,9.47,9.47,0,0,0,9.434,9.008,9.669,9.669,0,0,0,9.486-9.676V32.708a3.072,3.072,0,0,1,3.072-3.072h0c.005,0,1.613-.217,3.249,3.072l25.261,52.126c1.838,3.631,3.637,7.78,9.254,7.78a9.592,9.592,0,0,0,9.626-9.572V57.963L140.762,26.6c0-.054.008-.106.008-.161s-.005-.108-.008-.162V26.2h0a3.2,3.2,0,0,0-6.386.21h0V83.145a3.072,3.072,0,0,1-3.072,3.072h0c-.005,0-1.694.209-3.249-3.072Z" fill="url(#linear-gradient)"></path></g></svg> 