<?xml version="1.0" encoding="UTF-8"?> <svg xmlns="http://www.w3.org/2000/svg" xmlns:xlink="http://www.w3.org/1999/xlink" version="1.1" id="Capa_1" x="0px" y="0px" viewBox="0 0 522 693" style="enable-background:new 0 0 522 693;" xml:space="preserve"> <style type="text/css"> .st0{fill:#F7931A;} .st1{fill:#FFFFFF;} </style> <g> <path class="st0" d="M259.7-534.4l-14.3,57.2c16.2,4,66,20.4,74.1-11.9C327.9-522.8,275.8-530.4,259.7-534.4z"></path> <path class="st0" d="M238.2-448.3l-15.7,63c19.4,4.8,79.3,24.1,88.1-11.5C319.9-433.9,257.6-443.5,238.2-448.3z"></path> <path class="st0" d="M324.1-704.6C184.3-739.5,42.7-654.4,7.8-514.5c-34.8,139.8,50.3,281.4,190,316.3 c139.9,34.8,281.5-50.2,316.4-190.1C549-528.1,463.9-669.7,324.1-704.6z M376.1-488.6c-3.8,25.4-17.9,37.7-36.7,42 c25.7,13.4,38.8,33.9,26.3,69.5c-15.4,44.1-52.2,47.8-101,38.6L252.8-291l-28.6-7.1l11.7-46.9c-7.4-1.8-15-3.8-22.8-5.9l-11.7,47.1 l-28.6-7.1l11.9-47.6c-6.7-1.8-13.5-3.6-20.4-5.3l-37.3-9.3l14.3-32.7c0,0,21.1,5.6,20.8,5.2c8.1,2,11.7-3.3,13.1-6.8l18.8-75.3 l13.4-53.5c0.4-6.1-1.7-13.8-13.3-16.7c0.4-0.3-20.8-5.2-20.8-5.2l7.6-30.6l39.5,9.9v0.1c6,1.5,12.1,2.9,18.3,4.3l11.7-47l28.6,7.1 l-11.5,46.1c7.6,1.7,15.3,3.5,22.9,5.4l11.4-45.8l28.6,7.1l-11.7,47C354.9-542,381.3-523.3,376.1-488.6z"></path> </g> <path class="st0" d="M764.9-554.5c21.2,0,39.5,3.8,54.8,11.2c15.4,7.5,28.2,17.7,38.4,30.4c10.1,12.8,17.6,27.8,22.4,44.9 c4.8,17.2,7.2,35.7,7.2,55.5c0,30.4-5.6,59.1-16.8,86.2c-11.3,27.1-26.5,50.7-45.9,70.7s-42.3,35.8-68.7,47.5s-55,17.5-85.8,17.5 c-4,0-11-0.1-20.9-0.3s-21.2-1.2-34-2.9c-13.7-2-27.2-4.6-40.6-8c-14-3.4-27.6-8.3-40.6-14.5l114.3-480.2L751-712.3l-40.9,170.4 c8.5-3.8,17.3-6.9,26.4-9.2C745.8-553.4,755.3-554.5,764.9-554.5L764.9-554.5z M679-271.7c15.4,0,29.9-3.8,43.6-11.2 c13.7-7.5,25.8-17.7,35.4-30.1c10.1-12.9,18-27.3,23.4-42.6c5.7-15.9,8.6-32.7,8.6-49.6c0-21.1-3.5-37.6-10.6-49.5 c-7-11.9-20.1-17.8-39-17.8c-6.2,0-14.2,1.2-24.1,3.3c-9.9,2.2-18.8,6.9-26.8,13.9L646-274.4c2.6,0.5,5,0.9,6.9,1.3s4.1,0.8,6.2,1 c2.3,0.3,4.8,0.4,8,0.4H679L679-271.7z M993.9-199.7h-97.8l82.6-347.4h98.4L993.9-199.7z M1041.5-589.5c-13.3,0.1-26.3-4.2-37-12.2 c-11.1-8.1-16.6-20.5-16.6-37.3c0-9.2,1.9-17.9,5.6-26.1c3.6-7.9,8.7-15.1,14.9-21.1c6.3-6,13.5-10.8,21.5-14.2 c8.3-3.5,17.2-5.3,26.1-5.3c13.6,0,25.9,4.1,37,12.2c11,8.2,16.5,20.6,16.5,37.3c0.1,9-1.9,17.9-5.6,26.1 c-3.6,7.9-8.6,15.1-14.8,21.1c-6.2,6-13.5,10.8-21.5,14.2C1059.4-591.1,1050.7-589.5,1041.5-589.5L1041.5-589.5z M1162.8-633.7 l102.4-15.9l-25.1,102.4h109.7l-19.8,80.6h-109l-29,121.5c-2.7,10.1-4.2,19.6-4.6,28.4c-0.5,8.8,0.6,16.4,3.3,22.8 c2.6,6.4,7.3,11.3,14.2,14.8c6.8,3.5,16.6,5.3,29.4,5.3c10.5,0,20.8-1,30.7-3c10.2-2,20.2-4.8,30-8.2l7.3,75.3 c-14,5.1-28.4,9.3-42.9,12.5c-15.4,3.6-33.7,5.3-54.8,5.3c-30.4,0-53.9-4.5-70.7-13.5c-16.8-9-28.6-21.4-35.7-37 c-7-15.6-10.1-33.5-9.2-53.8s4-41.6,9.2-64.1L1162.8-633.7L1162.8-633.7z M1345.5-338.4c0-29.9,4.8-58.1,14.5-84.6 c9.7-26.4,23.6-49.6,41.6-69.4c18-19.7,39.9-35.4,65.8-46.9c25.7-11.4,54.5-17.2,86.1-17.2c19.9,0,37.6,1.9,53.2,5.6 c15.7,3.8,29.8,8.7,42.6,14.8l-33.7,76.7c-9-3.6-18.1-6.8-27.4-9.6c-9.5-2.9-21-4.3-34.7-4.3c-32.6,0-58.4,11.3-77.6,33.7 c-19.1,22.4-28.8,52.6-28.8,90.5c0,22.5,4.9,40.6,14.6,54.5s27.5,20.8,53.5,20.8c12.8,0,25.2-1.3,37-3.9c11.9-2.6,22.5-6,31.7-9.9 l7.3,78.6c-13.4,5.1-27.1,9.4-41,12.9c-15,3.7-32.8,5.6-53.5,5.6c-27.3,0-50.4-4-69.3-11.9c-18.9-8-34.6-18.6-46.9-32 c-12.4-13.5-21.3-29.2-26.8-47.3S1345.4-318.7,1345.5-338.4L1345.5-338.4z M1779.8-190.5c-23.3,0-43.6-3.6-60.8-10.6 c-17.1-7-31.3-16.9-42.6-29.7c-11.3-12.7-19.7-27.8-25.4-45.2c-5.8-17.4-8.5-36.6-8.5-57.7c0-26.5,4.2-52.9,12.8-79.3 c8.6-26.4,21.2-50.2,38-71.3c16.7-21.1,37.2-38.4,61.4-51.9c24.2-13.4,52-20.1,83.2-20.1c22.9,0,43.1,3.6,60.5,10.6 c17.3,7,31.6,17,42.9,29.7c11.2,12.8,19.7,27.8,25.4,45.3c5.8,17.3,8.6,36.7,8.6,57.8c0,26.4-4.2,52.9-12.5,79.3 c-8.3,26.3-20.7,50.2-37,71.3s-36.6,38.4-61.1,51.8C1840.2-197.2,1811.9-190.5,1779.8-190.5L1779.8-190.5z M1828.6-473.2 c-14.5,0-27.3,4.2-38.3,12.5c-11,8.4-20.3,19-27.7,31.7c-7.5,12.8-13.1,26.8-16.9,41.9c-3.8,15.2-5.6,29.6-5.6,43.3 c0,22,3.6,39.2,10.5,51.6c7.1,12.3,19.8,18.5,38.3,18.5c14.5,0,27.3-4.2,38.3-12.6c10.9-8.3,20.2-18.9,27.7-31.7 c7.5-12.7,13.1-26.7,16.9-41.9c3.7-15.2,5.6-29.6,5.6-43.3c0-22-3.5-39.2-10.6-51.5C1859.9-467,1847.1-473.2,1828.6-473.2 L1828.6-473.2z M2081.8-199.7H1984l82.6-347.4h98.5L2081.8-199.7L2081.8-199.7z M2129.3-589.5c-13.3,0.1-26.3-4.2-37-12.2 c-11-8.1-16.6-20.5-16.6-37.3c0-9.2,1.9-17.9,5.6-26.1c3.6-7.9,8.6-15.1,14.9-21.1c6.3-6,13.5-10.8,21.5-14.2 c8.2-3.5,17.1-5.3,26-5.3c13.7,0,26,4.1,37,12.2c11,8.2,16.5,20.6,16.5,37.3c0,9.3-2,18-5.7,26.1c-3.7,8.2-8.7,15.2-14.8,21.1 c-6.3,6-13.5,10.8-21.5,14.2C2147.2-591.1,2138.6-589.5,2129.3-589.5L2129.3-589.5z M2235.5-531.3c7.4-2.2,15.7-4.8,24.7-7.6 c10-3.1,20.2-5.7,30.4-7.9c11.2-2.4,23.8-4.4,37.6-6s29.6-2.3,47.2-2.3c51.6,0,87.1,15,106.7,45c19.6,29.9,23,70.9,10.3,122.9 l-45,187.6H2349l43.6-183.7c2.7-11.5,4.7-22.6,6.3-33.4c1.6-10.7,1.5-20.2-0.3-28.4c-1.6-7.8-5.9-14.9-12.2-19.8 c-6.5-5-16.2-7.6-29.4-7.6c-13.1,0.1-26.1,1.4-39,4l-64.1,268.8h-98.4L2235.5-531.3L2235.5-531.3z"></path> <g> <g> <path class="st1" d="M259.7,178l-14.3,57.2c16.2,4,66,20.4,74.1-11.9C327.9,189.6,275.8,182,259.7,178z"></path> <path class="st1" d="M238.2,264.1l-15.7,63c19.4,4.8,79.3,24.1,88.1-11.5C319.9,278.5,257.6,268.9,238.2,264.1z"></path> <path class="st1" d="M324.1,7.8C184.3-27.1,42.7,58,7.8,197.9c-34.8,139.8,50.3,281.4,190,316.3C337.7,549,479.3,464,514.2,324.1 C549,184.3,463.9,42.7,324.1,7.8z M376.1,223.8c-3.8,25.4-17.9,37.7-36.7,42c25.7,13.4,38.8,33.9,26.3,69.5 c-15.4,44.1-52.2,47.8-101,38.6l-11.9,47.5l-28.6-7.1l11.7-46.9c-7.4-1.8-15-3.8-22.8-5.9l-11.7,47.1l-28.6-7.1l11.9-47.6 c-6.7-1.8-13.5-3.6-20.4-5.3l-37.3-9.3l14.3-32.7c0,0,21.1,5.6,20.8,5.2c8.1,2,11.7-3.3,13.1-6.8l18.8-75.3l13.4-53.5 c0.4-6.1-1.7-13.8-13.3-16.7c0.4-0.3-20.8-5.2-20.8-5.2l7.6-30.6l39.5,9.9v0.1c6,1.5,12.1,2.9,18.3,4.3l11.7-47l28.6,7.1 l-11.5,46.1c7.6,1.7,15.3,3.5,22.9,5.4l11.4-45.8l28.6,7.1l-11.7,47C354.9,170.4,381.3,189.1,376.1,223.8z"></path> </g> <path class="st1" d="M61.2,596.7c5.6,0,10.5,1,14.6,3c4.1,2,7.5,4.7,10.2,8.1c2.7,3.4,4.7,7.4,5.9,11.9c1.3,4.6,1.9,9.5,1.9,14.7 c0,8.1-1.5,15.7-4.5,22.9s-7,13.5-12.2,18.8s-11.2,9.5-18.2,12.6s-14.6,4.6-22.8,4.6c-1.1,0-2.9,0-5.6-0.1s-5.6-0.3-9-0.8 c-3.6-0.5-7.2-1.2-10.8-2.1c-3.7-0.9-7.3-2.2-10.8-3.9L30.3,559l27.2-4.2l-10.9,45.3c2.3-1,4.6-1.8,7-2.4 C56.1,597,58.7,596.7,61.2,596.7L61.2,596.7z M38.4,671.8c4.1,0,7.9-1,11.6-3c3.6-2,6.9-4.7,9.4-8c2.7-3.4,4.8-7.3,6.2-11.3 c1.5-4.2,2.3-8.7,2.3-13.2c0-5.6-0.9-10-2.8-13.1c-1.9-3.2-5.3-4.7-10.4-4.7c-1.6,0-3.8,0.3-6.4,0.9c-2.6,0.6-5,1.8-7.1,3.7 l-11.6,48c0.7,0.1,1.3,0.2,1.8,0.3s1.1,0.2,1.6,0.3c0.6,0.1,1.3,0.1,2.1,0.1H38.4L38.4,671.8z M122,691H96l21.9-92.3H144L122,691z M134.7,587.4c-3.5,0-7-1.1-9.8-3.2c-2.9-2.2-4.4-5.4-4.4-9.9c0-2.4,0.5-4.8,1.5-6.9c1-2.1,2.3-4,4-5.6s3.6-2.9,5.7-3.8 c2.2-0.9,4.6-1.4,6.9-1.4c3.6,0,6.9,1.1,9.8,3.2c2.9,2.2,4.4,5.5,4.4,9.9c0,2.4-0.5,4.8-1.5,6.9c-1,2.1-2.3,4-3.9,5.6 c-1.6,1.6-3.6,2.9-5.7,3.8C139.4,587,137.1,587.4,134.7,587.4L134.7,587.4z M166.9,575.7l27.2-4.2l-6.7,27.2h29.1l-5.3,21.4h-28.9 l-7.7,32.3c-0.7,2.7-1.1,5.2-1.2,7.5c-0.1,2.3,0.2,4.4,0.9,6.1c0.7,1.7,1.9,3,3.8,3.9c1.8,0.9,4.4,1.4,7.8,1.4 c2.8,0,5.5-0.3,8.2-0.8s5.4-1.3,8-2.2l1.9,20c-3.7,1.4-7.5,2.5-11.4,3.3c-4.1,1-8.9,1.4-14.6,1.4c-8.1,0-14.3-1.2-18.8-3.6 c-4.5-2.4-7.6-5.7-9.5-9.8s-2.7-8.9-2.4-14.3c0.2-5.4,1.1-11,2.4-17L166.9,575.7L166.9,575.7z M215.4,654.1 c0-7.9,1.3-15.4,3.9-22.5c2.6-7,6.3-13.2,11-18.4c4.8-5.2,10.6-9.4,17.5-12.5c6.8-3,14.5-4.6,22.9-4.6c5.3,0,10,0.5,14.1,1.5 c4.2,1,7.9,2.3,11.3,3.9l-8.9,20.4c-2.4-1-4.8-1.8-7.3-2.5c-2.5-0.8-5.6-1.1-9.2-1.1c-8.7,0-15.5,3-20.6,8.9s-7.6,14-7.6,24 c0,6,1.3,10.8,3.9,14.5c2.6,3.7,7.3,5.5,14.2,5.5c3.4,0,6.7-0.3,9.8-1c3.2-0.7,6-1.6,8.4-2.6l1.9,20.9c-3.6,1.4-7.2,2.5-10.9,3.4 c-4,1-8.7,1.5-14.2,1.5c-7.3,0-13.4-1.1-18.4-3.2c-5-2.1-9.2-4.9-12.5-8.5s-5.7-7.8-7.1-12.6C216.1,664.4,215.4,659.4,215.4,654.1 L215.4,654.1z M330.7,693.4c-6.2,0-11.6-1-16.1-2.8c-4.5-1.9-8.3-4.5-11.3-7.9s-5.2-7.4-6.7-12s-2.3-9.7-2.3-15.3 c0-7,1.1-14,3.4-21.1c2.3-7,5.6-13.3,10.1-18.9c4.4-5.6,9.9-10.2,16.3-13.8s13.8-5.3,22.1-5.3c6.1,0,11.4,1,16.1,2.8 c4.6,1.9,8.4,4.5,11.4,7.9s5.2,7.4,6.7,12s2.3,9.7,2.3,15.4c0,7-1.1,14-3.3,21.1c-2.2,7-5.5,13.3-9.8,18.9s-9.7,10.2-16.2,13.8 C346.8,691.6,339.3,693.4,330.7,693.4L330.7,693.4z M343.7,618.3c-3.9,0-7.3,1.1-10.2,3.3c-2.9,2.2-5.4,5-7.4,8.4 s-3.5,7.1-4.5,11.1s-1.5,7.9-1.5,11.5c0,5.8,1,10.4,2.8,13.7c1.9,3.3,5.3,4.9,10.2,4.9c3.9,0,7.3-1.1,10.2-3.3 c2.9-2.2,5.4-5,7.4-8.4s3.5-7.1,4.5-11.1s1.5-7.9,1.5-11.5c0-5.8-0.9-10.4-2.8-13.7C352,620,348.6,618.3,343.7,618.3L343.7,618.3z M410.9,691h-26l21.9-92.3H433L410.9,691L410.9,691z M423.6,587.4c-3.5,0-7-1.1-9.8-3.2c-2.9-2.2-4.4-5.4-4.4-9.9 c0-2.4,0.5-4.8,1.5-6.9c1-2.1,2.3-4,4-5.6s3.6-2.9,5.7-3.8c2.2-0.9,4.5-1.4,6.9-1.4c3.6,0,6.9,1.1,9.8,3.2c2.9,2.2,4.4,5.5,4.4,9.9 c0,2.5-0.5,4.8-1.5,6.9c-1,2.2-2.3,4-3.9,5.6c-1.7,1.6-3.6,2.9-5.7,3.8C428.3,587,426,587.4,423.6,587.4L423.6,587.4z M451.8,602.9 c2-0.6,4.2-1.3,6.6-2c2.7-0.8,5.4-1.5,8.1-2.1c3-0.6,6.3-1.2,10-1.6c3.7-0.4,7.9-0.6,12.5-0.6c13.7,0,23.1,4,28.3,12 c5.2,7.9,6.1,18.8,2.7,32.6L508,691h-26.1l11.6-48.8c0.7-3.1,1.2-6,1.7-8.9c0.4-2.8,0.4-5.4-0.1-7.5c-0.4-2.1-1.6-4-3.2-5.3 c-1.7-1.3-4.3-2-7.8-2s-6.9,0.4-10.4,1.1l-17,71.4h-26.1L451.8,602.9L451.8,602.9z"></path> </g> </svg> 